<svg id="Layer_4" data-name="Layer 4" xmlns="http://www.w3.org/2000/svg" viewBox="0 0 1080 1080"><defs><style>.cls-1{fill:none;}.cls-2{fill:#2155cd;}</style></defs><path class="cls-1" d="M542.3,254.35a165.29,165.29,0,0,0,27.86-15.51,100.8,100.8,0,0,0,9.43-9.4,113.53,113.53,0,0,0,8.57-15.16c6.17-16.28,10.13-33.56,12.76-50.78a184.45,184.45,0,0,0,.72-36.24,110.7,110.7,0,0,0-4.58-17.48,86.65,86.65,0,0,0-5.13-8.8,82.87,82.87,0,0,0-6.56-6.56,82.69,82.69,0,0,0-7.64-4.55c-1.69-.54-3.39-1-5.1-1.4-1.19,0-2.38,0-3.57,0-.51.13-1,.28-1.53.43-1.18.65-2.35,1.33-3.49,2.06-1.58,1.48-3.1,3-4.54,4.65a89,89,0,0,0-5.24,9.08,160.59,160.59,0,0,0-7,29c-1.46,11.82-2.68,23.68-4,35.51-3.37,29.67-7,59.37-11.07,89Q537.25,256.37,542.3,254.35Z"/><path class="cls-1" d="M317.25,633.62c-17.55.76-35.06,2.09-52.5,4.26-24.29,3.58-48.87,8.77-71.79,17.65-2.52,1.22-5,2.58-7.37,4,.23.37.49.71.73,1.08q2.34,2.54,4.9,4.85a87.71,87.71,0,0,0,9,5.22A97.72,97.72,0,0,0,213,674.25a118.42,118.42,0,0,0,19.75-.19A181.73,181.73,0,0,0,266,664.39a258.28,258.28,0,0,0,46-26.5C313.79,636.48,315.54,635.07,317.25,633.62Z"/><path class="cls-1" d="M887.3,656.66a177,177,0,0,0,8.91-31.59,96.54,96.54,0,0,0,.28-13.06c-.34-1.51-.73-3-1.18-4.5-.45-.81-.92-1.62-1.42-2.41-1.55-1.7-3.19-3.33-4.9-4.88-2.28-1.46-4.62-2.83-7-4.06a110.31,110.31,0,0,0-17.26-4.5,170,170,0,0,0-31.9.35,234.55,234.55,0,0,0-48,13.55c-2.27,1-4.54,2-6.78,3.1,22.7,8.41,44,20,56.93,41.82,11.23,18.93,12.42,40.36,8.93,61.45q2.77-1.84,5.49-3.79a147.93,147.93,0,0,0,19.44-19.49A182.87,182.87,0,0,0,887.3,656.66Z"/><path class="cls-2" d="M976.43,589.15c-4-17.17-13.95-33.43-26.49-45.71-12.27-12-26-19.45-41.71-25.79-12.9-5.21-26.45-7.12-40.21-8.69a162.27,162.27,0,0,0-32-.28,259.1,259.1,0,0,0-76.9,18.26c-27.18,11.12-52.68,24.72-76.38,42.14-4.19,3.08-8.31,6.23-12.4,9.42q-39.69-8.87-79.94-14.84-62.83-9.3-126.15-12.49,8-21.57,15-43.54c16.34-51.55,28.55-104.17,38.29-157.31q16.28-4.87,32.3-10.5c31.44-11.06,63.93-24.83,87-49.9C660.6,264,672.32,230.5,679,196.52A335.3,335.3,0,0,0,684.88,153c1-14.95-.34-29.46-2.56-44.27-4.13-27.59-18-55.82-39.4-74.07C628,22,610.43,10.83,590.81,7.57c-14.62-2.42-26-2.67-40.69.08a82,82,0,0,0-27,10.84C490.58,38.48,473,74.24,467.28,111c-5.48,35-8.29,70.41-12.72,105.52-.82,6.5-1.68,13-2.54,19.5q-3.25,23.73-7,47.41-28.64,6.4-57.74,10.52a746.09,746.09,0,0,1-135.38,4.69c-10.26-.58-22.24,5-29.35,12.16s-12.62,19-12.16,29.34c1.06,23.55,18.25,40.19,41.51,41.51A778.92,778.92,0,0,0,429,371.05a1199.91,1199.91,0,0,1-30.39,116.26c-6.7,21-14,41.91-22.38,62.35-46.53.15-92.9,1.55-139.07,9-28.75,4.63-57.06,12-83.65,24-12.16,5.48-24.17,13.53-32.89,23.64-13.18,15.28-21.93,34.62-19.88,55.22a92.22,92.22,0,0,0,10.43,35.31c4,7.85,9.79,15.09,15.59,21.62a105.29,105.29,0,0,0,33.92,25.08,149.34,149.34,0,0,0,50.44,13.62c16.29,1.61,33.24-.64,49.13-4.11,16.15-3.53,31.4-9.81,46.48-16.43a257.88,257.88,0,0,0,33.2-17.55c23.62-14.81,46-33.06,63.66-54.7A307.83,307.83,0,0,0,426.13,633c23.45.41,46.88,1.25,70.3,3q30.7,2.29,61.25,6.25c13.18,1.83,26.32,3.93,39.42,6.21-34.42,39.74-64.27,83.65-92.41,127.88-16.6,26.1-31.41,53.21-41.89,82.41-11.6,32.34-14.83,67.53-7.25,101.16,6.1,27,20.75,53.84,41.22,72.68a153.7,153.7,0,0,0,67,36,195.69,195.69,0,0,0,68.23,4.64c13.34-1.51,26.65-3.43,39.63-6.92,12-3.22,23.67-7.64,35.2-12.21,56.39-22.34,108.84-52.12,157.9-87.7,13.53-9.8,26.77-20,39.91-30.32,7.78-6.11,12.16-20,12.16-29.35,0-10.18-4.53-22.34-12.16-29.35-7.91-7.26-18.3-12.65-29.35-12.15l-11,1.48a41.45,41.45,0,0,0-18.32,10.67l-2.85,2.23c-47.53,36.32-98.33,68.62-153.31,92.42-19.54,8-39.44,15-60.3,18.43a177.25,177.25,0,0,1-33.14.18A136.67,136.67,0,0,1,572,984.13a110.44,110.44,0,0,1-14.16-8.24,101.65,101.65,0,0,1-9.81-9.77,106.24,106.24,0,0,1-8-13.69,119.66,119.66,0,0,1-5.22-18.94A132.14,132.14,0,0,1,535,910a191.35,191.35,0,0,1,10.16-35.22c11.43-25.72,26.54-49.56,41.91-73.09,16.06-24.57,32.64-48.81,50.44-72.16a578.79,578.79,0,0,1,54.29-60.35c7.14,1.9,14.27,3.84,21.37,5.89,14.1,4.08,28.48,8,42.24,13.27a80.86,80.86,0,0,1,7.54,4.13c0,.77,0,1.55-.07,2.33-2.71,12.19-7.88,23.73-10,36.1-2.68,16-2.26,30.37,5.09,45.22,4.81,9.73,12.62,17.37,21.56,23.31,26.17,17.39,58.32,8.64,84.38-3.47,17.54-8.14,34.31-19.91,48.61-32.83,24.15-21.82,40.91-50,53-79.88C977.48,654,983.72,620.39,976.43,589.15ZM547.25,133.73a160.59,160.59,0,0,1,7-29,89,89,0,0,1,5.24-9.08c1.44-1.61,3-3.17,4.54-4.65,1.14-.73,2.31-1.41,3.49-2.06.51-.15,1-.3,1.53-.43,1.19,0,2.38,0,3.57,0,1.71.41,3.41.86,5.1,1.4a82.69,82.69,0,0,1,7.64,4.55,82.87,82.87,0,0,1,6.56,6.56,86.65,86.65,0,0,1,5.13,8.8,110.7,110.7,0,0,1,4.58,17.48,184.45,184.45,0,0,1-.72,36.24c-2.63,17.22-6.59,34.5-12.76,50.78a113.53,113.53,0,0,1-8.57,15.16,100.8,100.8,0,0,1-9.43,9.4,165.29,165.29,0,0,1-27.86,15.51q-5.06,2-10.15,3.91c4.09-29.65,7.7-59.35,11.07-89C544.57,157.41,545.79,145.55,547.25,133.73ZM266,664.39a181.73,181.73,0,0,1-33.24,9.67,118.42,118.42,0,0,1-19.75.19,97.72,97.72,0,0,1-12.79-3.55,87.71,87.71,0,0,1-9-5.22q-2.57-2.31-4.9-4.85c-.24-.37-.5-.71-.73-1.08,2.4-1.44,4.85-2.8,7.37-4,22.92-8.88,47.5-14.07,71.79-17.65,17.44-2.17,34.95-3.5,52.5-4.26-1.71,1.45-3.46,2.86-5.21,4.27A258.28,258.28,0,0,1,266,664.39Zm583.36,43.75q-2.72,2-5.49,3.79c3.49-21.09,2.3-42.52-8.93-61.45-13-21.84-34.23-33.41-56.93-41.82,2.24-1.07,4.51-2.09,6.78-3.1a234.55,234.55,0,0,1,48-13.55,170,170,0,0,1,31.9-.35,110.31,110.31,0,0,1,17.26,4.5c2.41,1.23,4.75,2.6,7,4.06,1.71,1.55,3.35,3.18,4.9,4.88.5.79,1,1.6,1.42,2.41.45,1.49.84,3,1.18,4.5a96.54,96.54,0,0,1-.28,13.06,177,177,0,0,1-8.91,31.59,182.87,182.87,0,0,1-18.5,32A147.93,147.93,0,0,1,849.36,708.14Z"/></svg>